<svg width="35" height="35" viewBox="0 0 35 35" fill="none" xmlns="http://www.w3.org/2000/svg">
<g clip-path="url(#clip0_5_5160)">
<path d="M34.6584 17.9031C34.6584 16.7135 34.5619 15.5175 34.3562 14.3472H17.8496V21.0861H27.3021C26.9099 23.2595 25.6496 25.1822 23.8041 26.4039V30.7765H29.4434C32.755 27.7286 34.6584 23.2274 34.6584 17.9031Z" fill="#4285F4"/>
<path d="M17.8494 35.0011C22.5692 35.0011 26.5495 33.4514 29.4496 30.7764L23.8102 26.4038C22.2413 27.4712 20.2157 28.0757 17.8558 28.0757C13.2903 28.0757 9.41928 24.9956 8.03034 20.8545H2.21094V25.3621C5.18173 31.2715 11.2326 35.0011 17.8494 35.0011V35.0011Z" fill="#34A853"/>
<path d="M8.02415 20.8545C7.29109 18.681 7.29109 16.3275 8.02415 14.1541V9.64648H2.21117C-0.270912 14.5914 -0.270912 20.4172 2.21117 25.3621L8.02415 20.8545V20.8545Z" fill="#FBBC04"/>
<path d="M17.8494 6.92659C20.3443 6.88801 22.7557 7.82683 24.5626 9.55014L29.5589 4.55382C26.3952 1.58303 22.1962 -0.0502629 17.8494 0.0011793C11.2326 0.0011793 5.18173 3.73074 2.21094 9.6466L8.02391 14.1542C9.40642 10.0067 13.2839 6.92659 17.8494 6.92659V6.92659Z" fill="#EA4335"/>
</g>
<defs>
<clipPath id="clip0_5_5160">
<rect width="35" height="35" fill="white"/>
</clipPath>
</defs>
</svg>
