<svg width="194" height="44" viewBox="0 0 194 44" fill="none" xmlns="http://www.w3.org/2000/svg">
<path fill-rule="evenodd" clip-rule="evenodd" d="M4.71971 27.0628C5.71755 28.0549 5.71754 29.6634 4.71967 30.6555L4.66857 30.7063C3.6707 31.6984 2.05286 31.6984 1.05501 30.7063C0.0571691 29.7142 0.0571845 28.1057 1.05505 27.1136L1.10615 27.0628C2.10402 26.0707 3.72186 26.0707 4.71971 27.0628Z" fill="#CCEDDE"/>
<path fill-rule="evenodd" clip-rule="evenodd" d="M16.7323 27.8281C17.7283 28.8219 17.7254 30.4304 16.7257 31.4207L9.64792 38.4323C8.64826 39.4226 7.03042 39.4197 6.03437 38.4258C5.03832 37.4319 5.04125 35.8234 6.04091 34.8331L13.1187 27.8216C14.1184 26.8313 15.7362 26.8342 16.7323 27.8281Z" fill="#26CA7D"/>
<path fill-rule="evenodd" clip-rule="evenodd" d="M26.3385 39.898C27.1213 38.7306 28.7077 38.4151 29.8819 39.1934L30.0352 39.295C31.2094 40.0733 31.5267 41.6506 30.7439 42.8179C29.9611 43.9853 28.3747 44.3008 27.2005 43.5225L27.0472 43.4209C25.873 42.6427 25.5557 41.0654 26.3385 39.898Z" fill="#CCEDDE"/>
<path fill-rule="evenodd" clip-rule="evenodd" d="M43.2005 26.9103C44.1984 27.9024 44.1984 29.5109 43.2005 30.503L39.7255 33.958C38.7276 34.9501 37.1098 34.9501 36.1119 33.958C35.1141 32.9659 35.1141 31.3574 36.1119 30.3653L39.5869 26.9103C40.5848 25.9183 42.2026 25.9183 43.2005 26.9103Z" fill="#26CA7D"/>
<path fill-rule="evenodd" clip-rule="evenodd" d="M43.2516 14.1321C44.2495 15.1242 44.2495 16.7327 43.2516 17.7247L17.5722 43.2559C16.5743 44.248 14.9565 44.248 13.9586 43.2559C12.9607 42.2638 12.9607 40.6553 13.9586 39.6632L39.638 14.1321C40.6359 13.14 42.2537 13.14 43.2516 14.1321Z" fill="#26CA7D"/>
<path fill-rule="evenodd" clip-rule="evenodd" d="M38.3968 6.28217C39.3947 7.27427 39.3947 8.88277 38.3968 9.87486L23.6279 24.5585C22.6301 25.5506 21.0122 25.5506 20.0144 24.5585C19.0165 23.5664 19.0165 21.9579 20.0144 20.9658L34.7833 6.28217C35.7811 5.29008 37.399 5.29008 38.3968 6.28217Z" fill="#26CA7D"/>
<path fill-rule="evenodd" clip-rule="evenodd" d="M30.6023 1.30175C31.6008 2.29317 31.6019 3.90167 30.6047 4.89444L11.6198 23.7951C10.6226 24.7879 9.00479 24.789 8.00626 23.7975C7.00773 22.8061 7.00665 21.1976 8.00383 20.2049L26.9887 1.30416C27.9859 0.311402 29.6038 0.31032 30.6023 1.30175Z" fill="#26CA7D"/>
<path fill-rule="evenodd" clip-rule="evenodd" d="M11.8006 7.35225C12.7967 8.34605 12.7939 9.95455 11.7944 10.9449L4.35883 18.3121C3.35926 19.3025 1.74142 19.2998 0.745284 18.306C-0.250852 17.3122 -0.248067 15.7037 0.751504 14.7133L8.18704 7.34607C9.18661 6.35568 10.8045 6.35845 11.8006 7.35225Z" fill="#26CA7D"/>
<path fill-rule="evenodd" clip-rule="evenodd" d="M16.3531 0C17.7643 0 18.9083 1.13738 18.9083 2.54042V2.79446C18.9083 4.19749 17.7643 5.33487 16.3531 5.33487C14.9419 5.33487 13.7979 4.19749 13.7979 2.79446V2.54042C13.7979 1.13738 14.9419 0 16.3531 0Z" fill="#CCEDDE"/>
<path d="M57.8762 26.5749C57.152 26.5749 56.5841 26.3774 56.1726 25.9824C55.7776 25.5709 55.5801 24.9866 55.5801 24.2295V11.2924C55.5801 10.5353 55.7776 9.95924 56.1726 9.56422C56.5841 9.15274 57.1767 8.94699 57.9502 8.94699H66.1717C66.7642 8.94699 67.2086 9.09513 67.5049 9.3914C67.8011 9.68766 67.9493 10.1156 67.9493 10.6752C67.9493 11.2513 67.8011 11.6957 67.5049 12.0084C67.2086 12.3047 66.7642 12.4528 66.1717 12.4528H60.1229V15.9587H65.6285C66.2046 15.9587 66.6408 16.1068 66.937 16.4031C67.2498 16.6993 67.4061 17.1273 67.4061 17.6869C67.4061 18.263 67.2498 18.6991 66.937 18.9954C66.6408 19.2917 66.2046 19.4398 65.6285 19.4398H60.1229V24.2295C60.1229 25.7931 59.374 26.5749 57.8762 26.5749ZM73.3209 26.6243C72.3827 26.6243 71.5515 26.4515 70.8273 26.1058C70.1195 25.7602 69.5599 25.2911 69.1484 24.6986C68.7534 24.0896 68.5559 23.3983 68.5559 22.6247C68.5559 21.7359 68.7863 21.0364 69.2472 20.5261C69.7081 20.0159 70.4487 19.6538 71.4692 19.4398C72.4897 19.2094 73.8476 19.0942 75.5429 19.0942H76.9008V21.168H75.5429C74.901 21.168 74.366 21.2174 73.9381 21.3162C73.5266 21.3985 73.2221 21.5384 73.0246 21.7359C72.8271 21.9169 72.7283 22.1556 72.7283 22.4519C72.7283 22.8304 72.86 23.1432 73.1234 23.3901C73.4032 23.6369 73.7982 23.7604 74.3084 23.7604C74.7199 23.7604 75.082 23.6699 75.3948 23.4888C75.7239 23.3078 75.9873 23.0609 76.1848 22.7481C76.3823 22.419 76.4811 22.0404 76.4811 21.6125V18.7485C76.4811 18.156 76.3247 17.7363 76.012 17.4894C75.7157 17.2425 75.1972 17.1191 74.4566 17.1191C74.0615 17.1191 73.6171 17.1684 73.1234 17.2672C72.6296 17.3495 72.0782 17.5058 71.4692 17.7363C71.0248 17.9009 70.6462 17.9256 70.3335 17.8103C70.0208 17.6951 69.7739 17.4976 69.5928 17.2178C69.4282 16.938 69.3459 16.6335 69.3459 16.3043C69.3624 15.9751 69.4694 15.6624 69.6669 15.3661C69.8809 15.0699 70.2018 14.8394 70.6298 14.6748C71.4198 14.3786 72.144 14.1811 72.8024 14.0823C73.4772 13.9836 74.0945 13.9342 74.6541 13.9342C76.0037 13.9342 77.1148 14.1317 77.9871 14.5267C78.8759 14.9053 79.5343 15.4978 79.9622 16.3043C80.4066 17.0944 80.6288 18.1148 80.6288 19.3658V24.3529C80.6288 25.0771 80.456 25.6285 80.1103 26.0071C79.7647 26.3857 79.2627 26.5749 78.6043 26.5749C77.9295 26.5749 77.411 26.3857 77.0489 26.0071C76.7033 25.6285 76.5304 25.0771 76.5304 24.3529V23.711L76.6786 24.0567C76.5963 24.5834 76.407 25.036 76.1107 25.4146C75.8145 25.7931 75.4277 26.0894 74.9503 26.3034C74.473 26.5173 73.9299 26.6243 73.3209 26.6243ZM85.3039 26.5749C84.6126 26.5749 84.0777 26.3857 83.6991 26.0071C83.3206 25.6285 83.1313 25.0771 83.1313 24.3529V16.1809C83.1313 15.4731 83.3123 14.93 83.6744 14.5514C84.053 14.1728 84.5879 13.9835 85.2792 13.9835C85.9705 13.9835 86.4972 14.1728 86.8593 14.5514C87.2214 14.93 87.4025 15.4731 87.4025 16.1809V17.3413L87.1309 16.329C87.5259 15.5554 88.0855 14.9629 88.8097 14.5514C89.5504 14.1399 90.3898 13.9342 91.328 13.9342C92.2991 13.9342 93.0974 14.1235 93.7229 14.502C94.3483 14.8641 94.8174 15.4402 95.1301 16.2302C95.4429 17.0038 95.5992 17.9832 95.5992 19.1682V24.3529C95.5992 25.0771 95.4099 25.6285 95.0314 26.0071C94.6528 26.3857 94.1097 26.5749 93.4019 26.5749C92.6941 26.5749 92.151 26.3857 91.7724 26.0071C91.3939 25.6285 91.2046 25.0771 91.2046 24.3529V19.3411C91.2046 18.6004 91.0729 18.0737 90.8096 17.761C90.5627 17.4482 90.1923 17.2919 89.6986 17.2919C89.0402 17.2919 88.5135 17.5058 88.1185 17.9338C87.7234 18.3453 87.5259 18.9049 87.5259 19.6126V24.3529C87.5259 25.8343 86.7852 26.5749 85.3039 26.5749ZM102.943 26.6243C102.219 26.6243 101.478 26.5667 100.721 26.4515C99.9802 26.3527 99.3053 26.1635 98.6963 25.8836C98.2849 25.7191 97.9886 25.4969 97.8075 25.217C97.6429 24.9372 97.5606 24.641 97.5606 24.3282C97.5771 24.0155 97.6676 23.7357 97.8322 23.4888C98.0133 23.2255 98.2437 23.0444 98.5235 22.9457C98.8198 22.8304 99.149 22.8387 99.5111 22.9703C100.202 23.2172 100.82 23.3983 101.363 23.5135C101.922 23.6123 102.457 23.6616 102.968 23.6616C103.577 23.6616 104.013 23.5793 104.276 23.4147C104.539 23.2337 104.671 23.0033 104.671 22.7235C104.671 22.4766 104.581 22.2873 104.399 22.1556C104.235 22.0239 103.996 21.9334 103.684 21.884L100.943 21.4396C99.9226 21.2586 99.1325 20.8882 98.5729 20.3286C98.0133 19.7525 97.7335 19.0036 97.7335 18.0819C97.7335 17.226 97.9721 16.4936 98.4495 15.8846C98.9432 15.2591 99.6098 14.7818 100.449 14.4526C101.305 14.107 102.284 13.9342 103.387 13.9342C104.128 13.9342 104.803 13.9918 105.412 14.107C106.021 14.2058 106.613 14.395 107.189 14.6748C107.551 14.823 107.807 15.0369 107.955 15.3168C108.103 15.5966 108.16 15.8928 108.128 16.2056C108.095 16.5018 107.988 16.7816 107.807 17.045C107.642 17.2919 107.412 17.4647 107.115 17.5635C106.819 17.6458 106.473 17.6211 106.078 17.4894C105.535 17.2754 105.05 17.1191 104.622 17.0203C104.21 16.9215 103.823 16.8722 103.461 16.8722C102.786 16.8722 102.309 16.9627 102.029 17.1437C101.75 17.3248 101.61 17.5552 101.61 17.835C101.61 18.049 101.684 18.2301 101.832 18.3782C101.98 18.5099 102.21 18.6004 102.523 18.6498L105.264 19.1189C106.317 19.2835 107.124 19.6456 107.683 20.2052C108.259 20.7483 108.547 21.489 108.547 22.4272C108.547 23.7604 108.037 24.7973 107.017 25.538C105.996 26.2622 104.638 26.6243 102.943 26.6243ZM116.601 26.6243C115.367 26.6243 114.346 26.435 113.54 26.0565C112.75 25.6779 112.157 25.1101 111.762 24.3529C111.367 23.5793 111.169 22.6165 111.169 21.4643V17.44H110.33C109.803 17.44 109.392 17.3001 109.096 17.0203C108.816 16.7405 108.676 16.3372 108.676 15.8105C108.676 15.2838 108.816 14.8888 109.096 14.6255C109.392 14.3457 109.803 14.2058 110.33 14.2058H111.169V12.675C111.169 11.9508 111.359 11.3994 111.737 11.0209C112.116 10.6423 112.659 10.453 113.367 10.453C114.075 10.453 114.618 10.6423 114.996 11.0209C115.375 11.3994 115.564 11.9508 115.564 12.675V14.2058H117.589C118.132 14.2058 118.543 14.3457 118.823 14.6255C119.119 14.8888 119.267 15.2838 119.267 15.8105C119.267 16.3372 119.119 16.7405 118.823 17.0203C118.543 17.3001 118.132 17.44 117.589 17.44H115.564V21.3162C115.564 21.9252 115.704 22.3778 115.984 22.6741C116.28 22.9539 116.741 23.0938 117.366 23.0938C117.597 23.0938 117.819 23.0691 118.033 23.0197C118.247 22.9703 118.445 22.9457 118.626 22.9457C118.889 22.9292 119.103 23.0115 119.267 23.1925C119.432 23.3571 119.514 23.7439 119.514 24.3529C119.514 24.8467 119.44 25.2664 119.292 25.6121C119.144 25.9413 118.881 26.1799 118.502 26.328C118.272 26.4103 117.959 26.4762 117.564 26.5256C117.169 26.5914 116.848 26.6243 116.601 26.6243ZM124.965 26.6243C124.027 26.6243 123.196 26.4515 122.472 26.1058C121.764 25.7602 121.204 25.2911 120.793 24.6986C120.398 24.0896 120.2 23.3983 120.2 22.6247C120.2 21.7359 120.431 21.0364 120.892 20.5261C121.352 20.0159 122.093 19.6538 123.114 19.4398C124.134 19.2094 125.492 19.0942 127.187 19.0942H128.545V21.168H127.187C126.545 21.168 126.01 21.2174 125.582 21.3162C125.171 21.3985 124.866 21.5384 124.669 21.7359C124.471 21.9169 124.373 22.1556 124.373 22.4519C124.373 22.8304 124.504 23.1432 124.768 23.3901C125.048 23.6369 125.443 23.7604 125.953 23.7604C126.364 23.7604 126.726 23.6699 127.039 23.4888C127.368 23.3078 127.632 23.0609 127.829 22.7481C128.027 22.419 128.125 22.0404 128.125 21.6125V18.7485C128.125 18.156 127.969 17.7363 127.656 17.4894C127.36 17.2425 126.842 17.1191 126.101 17.1191C125.706 17.1191 125.262 17.1684 124.768 17.2672C124.274 17.3495 123.723 17.5058 123.114 17.7363C122.669 17.9009 122.291 17.9256 121.978 17.8103C121.665 17.6951 121.418 17.4976 121.237 17.2178C121.073 16.938 120.99 16.6335 120.99 16.3043C121.007 15.9751 121.114 15.6624 121.311 15.3661C121.525 15.0699 121.846 14.8394 122.274 14.6748C123.064 14.3786 123.788 14.1811 124.447 14.0823C125.122 13.9836 125.739 13.9342 126.298 13.9342C127.648 13.9342 128.759 14.1317 129.631 14.5267C130.52 14.9053 131.179 15.4978 131.607 16.3043C132.051 17.0944 132.273 18.1148 132.273 19.3658V24.3529C132.273 25.0771 132.1 25.6285 131.755 26.0071C131.409 26.3857 130.907 26.5749 130.249 26.5749C129.574 26.5749 129.055 26.3857 128.693 26.0071C128.348 25.6285 128.175 25.0771 128.175 24.3529V23.711L128.323 24.0567C128.241 24.5834 128.051 25.036 127.755 25.4146C127.459 25.7931 127.072 26.0894 126.595 26.3034C126.117 26.5173 125.574 26.6243 124.965 26.6243ZM141.145 26.6243C139.911 26.6243 138.89 26.435 138.084 26.0565C137.294 25.6779 136.701 25.1101 136.306 24.3529C135.911 23.5793 135.714 22.6165 135.714 21.4643V17.44H134.874C134.348 17.44 133.936 17.3001 133.64 17.0203C133.36 16.7405 133.22 16.3372 133.22 15.8105C133.22 15.2838 133.36 14.8888 133.64 14.6255C133.936 14.3457 134.348 14.2058 134.874 14.2058H135.714V12.675C135.714 11.9508 135.903 11.3994 136.282 11.0209C136.66 10.6423 137.203 10.453 137.911 10.453C138.619 10.453 139.162 10.6423 139.541 11.0209C139.919 11.3994 140.108 11.9508 140.108 12.675V14.2058H142.133C142.676 14.2058 143.088 14.3457 143.367 14.6255C143.664 14.8888 143.812 15.2838 143.812 15.8105C143.812 16.3372 143.664 16.7405 143.367 17.0203C143.088 17.3001 142.676 17.44 142.133 17.44H140.108V21.3162C140.108 21.9252 140.248 22.3778 140.528 22.6741C140.824 22.9539 141.285 23.0938 141.911 23.0938C142.141 23.0938 142.363 23.0691 142.577 23.0197C142.791 22.9703 142.989 22.9457 143.17 22.9457C143.433 22.9292 143.647 23.0115 143.812 23.1925C143.976 23.3571 144.059 23.7439 144.059 24.3529C144.059 24.8467 143.985 25.2664 143.837 25.6121C143.688 25.9413 143.425 26.1799 143.046 26.328C142.816 26.4103 142.503 26.4762 142.108 26.5256C141.713 26.5914 141.392 26.6243 141.145 26.6243ZM147.894 26.5749C147.203 26.5749 146.668 26.3692 146.29 25.9577C145.911 25.5462 145.722 24.9537 145.722 24.1801V16.3784C145.722 15.6048 145.911 15.0123 146.29 14.6008C146.668 14.1893 147.203 13.9835 147.894 13.9835C148.602 13.9835 149.145 14.1893 149.524 14.6008C149.919 15.0123 150.116 15.6048 150.116 16.3784V24.1801C150.116 24.9537 149.927 25.5462 149.549 25.9577C149.17 26.3692 148.619 26.5749 147.894 26.5749ZM147.894 12.2306C147.121 12.2306 146.52 12.0496 146.092 11.6875C145.681 11.3254 145.475 10.7987 145.475 10.1074C145.475 9.43254 145.681 8.91408 146.092 8.55197C146.52 8.18987 147.121 8.00881 147.894 8.00881C148.701 8.00881 149.31 8.18987 149.721 8.55197C150.133 8.91408 150.339 9.43254 150.339 10.1074C150.339 10.7987 150.133 11.3254 149.721 11.6875C149.31 12.0496 148.701 12.2306 147.894 12.2306ZM158.862 26.6243C157.496 26.6243 156.303 26.3692 155.283 25.859C154.279 25.3487 153.497 24.6163 152.937 23.6616C152.377 22.6905 152.098 21.5548 152.098 20.2546C152.098 19.267 152.254 18.3864 152.567 17.6128C152.879 16.8228 153.332 16.1562 153.925 15.613C154.534 15.0699 155.25 14.6584 156.073 14.3786C156.912 14.0823 157.842 13.9342 158.862 13.9342C159.34 13.9342 159.842 13.9836 160.368 14.0823C160.895 14.1646 161.438 14.3292 161.998 14.5761C162.393 14.7242 162.665 14.9547 162.813 15.2674C162.977 15.5636 163.043 15.8846 163.01 16.2302C162.994 16.5759 162.895 16.8886 162.714 17.1684C162.549 17.4482 162.311 17.6375 161.998 17.7363C161.702 17.835 161.364 17.7939 160.986 17.6128C160.722 17.4812 160.443 17.3906 160.146 17.3413C159.866 17.2754 159.595 17.2425 159.332 17.2425C158.887 17.2425 158.492 17.3083 158.146 17.44C157.817 17.5717 157.537 17.7692 157.307 18.0325C157.077 18.2794 156.896 18.5922 156.764 18.9707C156.649 19.3493 156.591 19.7772 156.591 20.2546C156.591 21.2092 156.83 21.9581 157.307 22.5013C157.784 23.0444 158.459 23.316 159.332 23.316C159.595 23.316 159.866 23.2913 160.146 23.2419C160.426 23.1761 160.706 23.0773 160.986 22.9457C161.364 22.7646 161.702 22.7317 161.998 22.8469C162.294 22.9457 162.533 23.1349 162.714 23.4147C162.895 23.6946 162.994 24.0073 163.01 24.3529C163.027 24.6821 162.953 25.0031 162.788 25.3158C162.623 25.6121 162.344 25.8343 161.949 25.9824C161.405 26.2293 160.87 26.3939 160.344 26.4762C159.834 26.5749 159.34 26.6243 158.862 26.6243Z" fill="black"/>
<path d="M56.6763 39.5706C56.301 39.5706 55.985 39.5047 55.7282 39.3731C55.478 39.2348 55.2904 39.0373 55.1653 38.7805C55.0402 38.5172 54.9777 38.1979 54.9777 37.8226V35.3043H54.316C54.2041 35.3043 54.1185 35.278 54.0593 35.2253C54 35.1661 53.9704 35.087 53.9704 34.9883C53.9704 34.8895 54 34.8138 54.0593 34.7612C54.1185 34.7085 54.2041 34.6821 54.316 34.6821H54.9777V33.5465C54.9777 33.4148 55.0139 33.316 55.0863 33.2502C55.1587 33.1778 55.2575 33.1416 55.3826 33.1416C55.5077 33.1416 55.6031 33.1778 55.669 33.2502C55.7414 33.316 55.7776 33.4148 55.7776 33.5465V34.6821H57.0219C57.1339 34.6821 57.2194 34.7085 57.2787 34.7612C57.338 34.8138 57.3676 34.8895 57.3676 34.9883C57.3676 35.087 57.338 35.1661 57.2787 35.2253C57.2194 35.278 57.1339 35.3043 57.0219 35.3043H55.7776V37.7436C55.7776 38.1189 55.8566 38.4052 56.0146 38.6028C56.1726 38.7937 56.4294 38.8892 56.7849 38.8892C56.91 38.8892 57.0153 38.876 57.1009 38.8497C57.1931 38.8233 57.2688 38.8101 57.3281 38.8101C57.3873 38.8036 57.4367 38.8233 57.4762 38.8694C57.5157 38.9155 57.5355 38.9945 57.5355 39.1064C57.5355 39.1854 57.519 39.2578 57.4861 39.3237C57.4598 39.3895 57.4104 39.4356 57.338 39.4619C57.2589 39.4883 57.1536 39.5113 57.0219 39.5311C56.8968 39.5574 56.7816 39.5706 56.6763 39.5706ZM58.656 39.5508C58.5244 39.5508 58.4256 39.5146 58.3598 39.4422C58.2939 39.3698 58.261 39.2677 58.261 39.136V32.8552C58.261 32.7235 58.2939 32.6247 58.3598 32.5589C58.4256 32.4865 58.5244 32.4503 58.656 32.4503C58.7811 32.4503 58.8799 32.4865 58.9523 32.5589C59.0247 32.6247 59.0609 32.7235 59.0609 32.8552V35.7487H58.9326C59.0708 35.3669 59.2947 35.0805 59.6041 34.8895C59.9201 34.692 60.2822 34.5933 60.6904 34.5933C61.0723 34.5933 61.3883 34.6624 61.6385 34.8007C61.8952 34.9389 62.0862 35.1496 62.2113 35.4327C62.3363 35.7092 62.3989 36.0614 62.3989 36.4894V39.136C62.3989 39.2677 62.3627 39.3698 62.2903 39.4422C62.2244 39.5146 62.129 39.5508 62.0039 39.5508C61.8722 39.5508 61.7701 39.5146 61.6977 39.4422C61.6319 39.3698 61.599 39.2677 61.599 39.136V36.5388C61.599 36.0911 61.5101 35.7652 61.3323 35.5611C61.1611 35.3504 60.8846 35.2451 60.5028 35.2451C60.0617 35.2451 59.7094 35.3833 59.4461 35.6598C59.1893 35.9298 59.0609 36.2919 59.0609 36.7461V39.136C59.0609 39.4126 58.926 39.5508 58.656 39.5508ZM66.0367 39.5706C65.5297 39.5706 65.0919 39.4718 64.7232 39.2743C64.3611 39.0702 64.078 38.7838 63.8739 38.4151C63.6764 38.0464 63.5776 37.6053 63.5776 37.0918C63.5776 36.5914 63.6764 36.1569 63.8739 35.7882C64.0714 35.4129 64.3413 35.12 64.6837 34.9093C65.0326 34.6986 65.4342 34.5933 65.8885 34.5933C66.2111 34.5933 66.5008 34.6492 66.7576 34.7612C67.0143 34.8665 67.2316 35.0212 67.4094 35.2253C67.5937 35.4294 67.732 35.6763 67.8241 35.966C67.9229 36.2557 67.9723 36.5816 67.9723 36.9437C67.9723 37.049 67.9426 37.128 67.8834 37.1807C67.8241 37.2268 67.7386 37.2498 67.6266 37.2498H64.1899V36.7264H67.439L67.281 36.8548C67.281 36.4993 67.2283 36.1997 67.123 35.9561C67.0176 35.7059 66.8629 35.515 66.6588 35.3833C66.4613 35.2516 66.2111 35.1858 65.9083 35.1858C65.5725 35.1858 65.2861 35.2648 65.0491 35.4228C64.8187 35.5742 64.6442 35.7882 64.5257 36.0647C64.4072 36.3347 64.3479 36.6507 64.3479 37.0128V37.072C64.3479 37.6777 64.4928 38.1386 64.7825 38.4546C65.0787 38.7706 65.4968 38.9287 66.0367 38.9287C66.2605 38.9287 66.4811 38.899 66.6983 38.8398C66.9222 38.7805 67.1394 38.6818 67.3501 38.5435C67.4423 38.4843 67.5246 38.4579 67.597 38.4645C67.676 38.4645 67.7386 38.4875 67.7846 38.5336C67.8307 38.5731 67.8604 38.6258 67.8735 38.6916C67.8933 38.7509 67.8867 38.8167 67.8538 38.8892C67.8274 38.9616 67.7715 39.0241 67.6859 39.0768C67.4686 39.2348 67.2119 39.3566 66.9156 39.4422C66.6193 39.5278 66.3263 39.5706 66.0367 39.5706ZM72.0809 39.5508C71.9492 39.5508 71.8472 39.5146 71.7748 39.4422C71.7089 39.3698 71.676 39.2677 71.676 39.136V35.0179C71.676 34.8862 71.7089 34.7875 71.7748 34.7217C71.8406 34.6492 71.9361 34.613 72.0612 34.613C72.1862 34.613 72.2817 34.6492 72.3476 34.7217C72.42 34.7875 72.4562 34.8862 72.4562 35.0179V35.8178H72.3574C72.4628 35.4294 72.6636 35.1298 72.9598 34.9192C73.2561 34.7085 73.6215 34.5966 74.056 34.5834C74.1548 34.5768 74.2338 34.5999 74.293 34.6525C74.3523 34.6986 74.3852 34.7809 74.3918 34.8994C74.3984 35.0113 74.372 35.1002 74.3128 35.1661C74.2535 35.2319 74.1614 35.2714 74.0363 35.2846L73.8783 35.3043C73.4306 35.3438 73.0849 35.4887 72.8413 35.7388C72.6043 35.9824 72.4858 36.3182 72.4858 36.7461V39.136C72.4858 39.2677 72.4496 39.3698 72.3772 39.4422C72.3113 39.5146 72.2126 39.5508 72.0809 39.5508ZM77.3203 39.5706C76.8134 39.5706 76.3755 39.4718 76.0068 39.2743C75.6447 39.0702 75.3616 38.7838 75.1575 38.4151C74.96 38.0464 74.8613 37.6053 74.8613 37.0918C74.8613 36.5914 74.96 36.1569 75.1575 35.7882C75.3551 35.4129 75.625 35.12 75.9673 34.9093C76.3163 34.6986 76.7179 34.5933 77.1722 34.5933C77.4948 34.5933 77.7845 34.6492 78.0412 34.7612C78.298 34.8665 78.5152 35.0212 78.693 35.2253C78.8774 35.4294 79.0156 35.6763 79.1078 35.966C79.2065 36.2557 79.2559 36.5816 79.2559 36.9437C79.2559 37.049 79.2263 37.128 79.167 37.1807C79.1078 37.2268 79.0222 37.2498 78.9103 37.2498H75.4736V36.7264H78.7226L78.5646 36.8548C78.5646 36.4993 78.512 36.1997 78.4066 35.9561C78.3013 35.7059 78.1466 35.515 77.9425 35.3833C77.745 35.2516 77.4948 35.1858 77.1919 35.1858C76.8561 35.1858 76.5698 35.2648 76.3327 35.4228C76.1023 35.5742 75.9278 35.7882 75.8093 36.0647C75.6908 36.3347 75.6316 36.6507 75.6316 37.0128V37.072C75.6316 37.6777 75.7764 38.1386 76.0661 38.4546C76.3624 38.7706 76.7804 38.9287 77.3203 38.9287C77.5441 38.9287 77.7647 38.899 77.982 38.8398C78.2058 38.7805 78.4231 38.6818 78.6338 38.5435C78.7259 38.4843 78.8082 38.4579 78.8806 38.4645C78.9597 38.4645 79.0222 38.4875 79.0683 38.5336C79.1144 38.5731 79.144 38.6258 79.1572 38.6916C79.1769 38.7509 79.1703 38.8167 79.1374 38.8892C79.1111 38.9616 79.0551 39.0241 78.9695 39.0768C78.7523 39.2348 78.4955 39.3566 78.1992 39.4422C77.903 39.5278 77.61 39.5706 77.3203 39.5706ZM82.0332 39.5706C81.7369 39.5706 81.4374 39.5344 81.1345 39.4619C80.8383 39.3895 80.5617 39.2644 80.305 39.0867C80.2391 39.0406 80.193 38.9879 80.1667 38.9287C80.1404 38.8628 80.1305 38.8003 80.1371 38.741C80.1503 38.6752 80.1766 38.6192 80.2161 38.5731C80.2622 38.527 80.3148 38.5007 80.3741 38.4941C80.4399 38.481 80.5124 38.4941 80.5914 38.5336C80.8481 38.6916 81.095 38.8036 81.332 38.8694C81.5756 38.9287 81.8159 38.9583 82.053 38.9583C82.4282 38.9583 82.7113 38.8892 82.9023 38.7509C83.0932 38.6126 83.1886 38.425 83.1886 38.188C83.1886 38.0036 83.1261 37.8588 83.001 37.7535C82.8759 37.6415 82.6784 37.5559 82.4085 37.4967L81.5098 37.2992C81.095 37.2136 80.7856 37.0655 80.5815 36.8548C80.384 36.6441 80.2852 36.3709 80.2852 36.0351C80.2852 35.7388 80.3609 35.4854 80.5124 35.2747C80.6704 35.0574 80.8909 34.8895 81.174 34.771C81.4571 34.6525 81.7863 34.5933 82.1616 34.5933C82.4513 34.5933 82.7245 34.6328 82.9813 34.7118C83.2446 34.7842 83.4816 34.9027 83.6923 35.0673C83.7581 35.1134 83.8009 35.1693 83.8207 35.2352C83.847 35.2944 83.8503 35.357 83.8306 35.4228C83.8174 35.4821 83.7878 35.5347 83.7417 35.5808C83.6956 35.6203 83.6396 35.6434 83.5738 35.65C83.508 35.6565 83.4388 35.6368 83.3664 35.5907C83.1689 35.459 82.9681 35.3636 82.764 35.3043C82.5599 35.2385 82.3591 35.2056 82.1616 35.2056C81.7929 35.2056 81.5131 35.278 81.3222 35.4228C81.1312 35.5677 81.0358 35.7586 81.0358 35.9956C81.0358 36.1799 81.095 36.3314 81.2135 36.4499C81.332 36.5684 81.5164 36.654 81.7666 36.7066L82.6652 36.8943C83.0932 36.9865 83.4125 37.1346 83.6232 37.3387C83.8404 37.5362 83.9491 37.8061 83.9491 38.1485C83.9491 38.583 83.7746 38.9287 83.4257 39.1854C83.0767 39.4422 82.6126 39.5706 82.0332 39.5706ZM87.0457 39.5706C86.6704 39.5706 86.3544 39.5047 86.0976 39.3731C85.8474 39.2348 85.6598 39.0373 85.5347 38.7805C85.4096 38.5172 85.3471 38.1979 85.3471 37.8226V35.3043H84.6854C84.5735 35.3043 84.4879 35.278 84.4286 35.2253C84.3694 35.1661 84.3398 35.087 84.3398 34.9883C84.3398 34.8895 84.3694 34.8138 84.4286 34.7612C84.4879 34.7085 84.5735 34.6821 84.6854 34.6821H85.3471V33.5465C85.3471 33.4148 85.3833 33.316 85.4557 33.2502C85.5281 33.1778 85.6269 33.1416 85.752 33.1416C85.8771 33.1416 85.9725 33.1778 86.0384 33.2502C86.1108 33.316 86.147 33.4148 86.147 33.5465V34.6821H87.3913C87.5033 34.6821 87.5888 34.7085 87.6481 34.7612C87.7073 34.8138 87.737 34.8895 87.737 34.9883C87.737 35.087 87.7073 35.1661 87.6481 35.2253C87.5888 35.278 87.5033 35.3043 87.3913 35.3043H86.147V37.7436C86.147 38.1189 86.226 38.4052 86.384 38.6028C86.542 38.7937 86.7988 38.8892 87.1543 38.8892C87.2794 38.8892 87.3847 38.876 87.4703 38.8497C87.5625 38.8233 87.6382 38.8101 87.6975 38.8101C87.7567 38.8036 87.8061 38.8233 87.8456 38.8694C87.8851 38.9155 87.9049 38.9945 87.9049 39.1064C87.9049 39.1854 87.8884 39.2578 87.8555 39.3237C87.8291 39.3895 87.7798 39.4356 87.7073 39.4619C87.6283 39.4883 87.523 39.5113 87.3913 39.5311C87.2662 39.5574 87.151 39.5706 87.0457 39.5706ZM90.0835 39.5706C89.7543 39.5706 89.4581 39.508 89.1947 39.3829C88.9379 39.2513 88.7338 39.0735 88.5824 38.8497C88.431 38.6258 88.3553 38.3756 88.3553 38.0991C88.3553 37.7436 88.4442 37.4638 88.6219 37.2597C88.8063 37.0556 89.1058 36.9107 89.5206 36.8252C89.942 36.7396 90.5147 36.6968 91.239 36.6968H91.6834V37.2202H91.2488C90.7155 37.2202 90.2942 37.2465 89.9848 37.2992C89.6819 37.3453 89.4679 37.4276 89.3428 37.5461C89.2243 37.6646 89.1651 37.8325 89.1651 38.0497C89.1651 38.3197 89.2573 38.5402 89.4416 38.7114C89.6325 38.8826 89.8893 38.9682 90.2119 38.9682C90.4752 38.9682 90.7057 38.9056 90.9032 38.7805C91.1073 38.6554 91.2653 38.4843 91.3772 38.267C91.4957 38.0497 91.555 37.7995 91.555 37.5164V36.3906C91.555 35.9824 91.4727 35.6895 91.3081 35.5117C91.1435 35.3274 90.8736 35.2352 90.4983 35.2352C90.2679 35.2352 90.0374 35.2648 89.807 35.3241C89.5766 35.3833 89.333 35.4788 89.0762 35.6105C88.984 35.6565 88.905 35.673 88.8392 35.6598C88.7733 35.6401 88.7207 35.6039 88.6812 35.5512C88.6417 35.4985 88.6186 35.4393 88.612 35.3734C88.6055 35.301 88.6186 35.2319 88.6515 35.1661C88.6911 35.1002 88.7503 35.0475 88.8293 35.008C89.119 34.8632 89.4054 34.7579 89.6885 34.692C89.9716 34.6262 90.2415 34.5933 90.4983 34.5933C90.9131 34.5933 91.2554 34.6624 91.5253 34.8007C91.7953 34.9323 91.9961 35.1364 92.1278 35.4129C92.2594 35.6829 92.3253 36.0318 92.3253 36.4598V39.136C92.3253 39.2677 92.2924 39.3698 92.2265 39.4422C92.1673 39.5146 92.0784 39.5508 91.9599 39.5508C91.8348 39.5508 91.7393 39.5146 91.6735 39.4422C91.6076 39.3698 91.5747 39.2677 91.5747 39.136V38.3657H91.6636C91.6109 38.6159 91.5089 38.8299 91.3575 39.0077C91.2126 39.1854 91.0316 39.3237 90.8143 39.4224C90.597 39.5212 90.3534 39.5706 90.0835 39.5706ZM95.5079 39.5706C95.1195 39.5706 94.7969 39.5014 94.5401 39.3632C94.2899 39.2183 94.099 39.0044 93.9673 38.7213C93.8422 38.4382 93.7797 38.0859 93.7797 37.6646V35.0179C93.7797 34.8797 93.8126 34.7776 93.8784 34.7118C93.9509 34.6459 94.0496 34.613 94.1747 34.613C94.3064 34.613 94.4051 34.6459 94.471 34.7118C94.5434 34.7776 94.5796 34.8797 94.5796 35.0179V37.6547C94.5796 38.0761 94.6652 38.3921 94.8364 38.6028C95.0141 38.8069 95.2907 38.9089 95.6659 38.9089C96.0741 38.9089 96.4066 38.7706 96.6634 38.4941C96.9201 38.2176 97.0485 37.8555 97.0485 37.4078V35.0179C97.0485 34.8797 97.0814 34.7776 97.1473 34.7118C97.2197 34.6459 97.3217 34.613 97.4534 34.613C97.5785 34.613 97.674 34.6459 97.7398 34.7118C97.8122 34.7776 97.8484 34.8797 97.8484 35.0179V39.136C97.8484 39.4126 97.72 39.5508 97.4633 39.5508C97.3382 39.5508 97.2394 39.5146 97.167 39.4422C97.1012 39.3698 97.0683 39.2677 97.0683 39.136V38.2374L97.1966 38.3756C97.065 38.7641 96.8477 39.0603 96.5449 39.2644C96.2486 39.4685 95.9029 39.5706 95.5079 39.5706ZM99.7499 39.5508C99.6183 39.5508 99.5162 39.5146 99.4438 39.4422C99.378 39.3698 99.345 39.2677 99.345 39.136V35.0179C99.345 34.8862 99.378 34.7875 99.4438 34.7217C99.5096 34.6492 99.6051 34.613 99.7302 34.613C99.8553 34.613 99.9508 34.6492 100.017 34.7217C100.089 34.7875 100.125 34.8862 100.125 35.0179V35.8178H100.026C100.132 35.4294 100.333 35.1298 100.629 34.9192C100.925 34.7085 101.291 34.5966 101.725 34.5834C101.824 34.5768 101.903 34.5999 101.962 34.6525C102.021 34.6986 102.054 34.7809 102.061 34.8994C102.067 35.0113 102.041 35.1002 101.982 35.1661C101.923 35.2319 101.83 35.2714 101.705 35.2846L101.547 35.3043C101.1 35.3438 100.754 35.4887 100.51 35.7388C100.273 35.9824 100.155 36.3182 100.155 36.7461V39.136C100.155 39.2677 100.119 39.3698 100.046 39.4422C99.9804 39.5146 99.8816 39.5508 99.7499 39.5508ZM104.347 39.5706C104.018 39.5706 103.722 39.508 103.458 39.3829C103.202 39.2513 102.998 39.0735 102.846 38.8497C102.695 38.6258 102.619 38.3756 102.619 38.0991C102.619 37.7436 102.708 37.4638 102.886 37.2597C103.07 37.0556 103.37 36.9107 103.784 36.8252C104.206 36.7396 104.778 36.6968 105.503 36.6968H105.947V37.2202H105.513C104.979 37.2202 104.558 37.2465 104.248 37.2992C103.946 37.3453 103.732 37.4276 103.607 37.5461C103.488 37.6646 103.429 37.8325 103.429 38.0497C103.429 38.3197 103.521 38.5402 103.705 38.7114C103.896 38.8826 104.153 38.9682 104.476 38.9682C104.739 38.9682 104.969 38.9056 105.167 38.7805C105.371 38.6554 105.529 38.4843 105.641 38.267C105.759 38.0497 105.819 37.7995 105.819 37.5164V36.3906C105.819 35.9824 105.736 35.6895 105.572 35.5117C105.407 35.3274 105.137 35.2352 104.762 35.2352C104.532 35.2352 104.301 35.2648 104.071 35.3241C103.84 35.3833 103.597 35.4788 103.34 35.6105C103.248 35.6565 103.169 35.673 103.103 35.6598C103.037 35.6401 102.984 35.6039 102.945 35.5512C102.905 35.4985 102.882 35.4393 102.876 35.3734C102.869 35.301 102.882 35.2319 102.915 35.1661C102.955 35.1002 103.014 35.0475 103.093 35.008C103.383 34.8632 103.669 34.7579 103.952 34.692C104.235 34.6262 104.505 34.5933 104.762 34.5933C105.177 34.5933 105.519 34.6624 105.789 34.8007C106.059 34.9323 106.26 35.1364 106.391 35.4129C106.523 35.6829 106.589 36.0318 106.589 36.4598V39.136C106.589 39.2677 106.556 39.3698 106.49 39.4422C106.431 39.5146 106.342 39.5508 106.224 39.5508C106.098 39.5508 106.003 39.5146 105.937 39.4422C105.871 39.3698 105.838 39.2677 105.838 39.136V38.3657H105.927C105.875 38.6159 105.773 38.8299 105.621 39.0077C105.476 39.1854 105.295 39.3237 105.078 39.4224C104.861 39.5212 104.617 39.5706 104.347 39.5706ZM108.468 39.5508C108.336 39.5508 108.238 39.5146 108.172 39.4422C108.106 39.3698 108.073 39.2677 108.073 39.136V35.0179C108.073 34.8862 108.106 34.7875 108.172 34.7217C108.238 34.6492 108.333 34.613 108.458 34.613C108.583 34.613 108.679 34.6492 108.745 34.7217C108.817 34.7875 108.853 34.8862 108.853 35.0179V35.8672L108.745 35.7487C108.883 35.3669 109.107 35.0805 109.416 34.8895C109.732 34.692 110.094 34.5933 110.502 34.5933C110.884 34.5933 111.2 34.6624 111.45 34.8007C111.707 34.9389 111.898 35.1496 112.023 35.4327C112.148 35.7092 112.211 36.0614 112.211 36.4894V39.136C112.211 39.2677 112.175 39.3698 112.102 39.4422C112.036 39.5146 111.941 39.5508 111.816 39.5508C111.684 39.5508 111.582 39.5146 111.51 39.4422C111.444 39.3698 111.411 39.2677 111.411 39.136V36.5388C111.411 36.0911 111.322 35.7652 111.144 35.5611C110.973 35.3504 110.697 35.2451 110.315 35.2451C109.874 35.2451 109.521 35.3833 109.258 35.6598C109.001 35.9298 108.873 36.2919 108.873 36.7461V39.136C108.873 39.4126 108.738 39.5508 108.468 39.5508ZM115.612 39.5706C115.236 39.5706 114.92 39.5047 114.664 39.3731C114.413 39.2348 114.226 39.0373 114.101 38.7805C113.976 38.5172 113.913 38.1979 113.913 37.8226V35.3043H113.251C113.139 35.3043 113.054 35.278 112.995 35.2253C112.935 35.1661 112.906 35.087 112.906 34.9883C112.906 34.8895 112.935 34.8138 112.995 34.7612C113.054 34.7085 113.139 34.6821 113.251 34.6821H113.913V33.5465C113.913 33.4148 113.949 33.316 114.022 33.2502C114.094 33.1778 114.193 33.1416 114.318 33.1416C114.443 33.1416 114.538 33.1778 114.604 33.2502C114.677 33.316 114.713 33.4148 114.713 33.5465V34.6821H115.957C116.069 34.6821 116.155 34.7085 116.214 34.7612C116.273 34.8138 116.303 34.8895 116.303 34.9883C116.303 35.087 116.273 35.1661 116.214 35.2253C116.155 35.278 116.069 35.3043 115.957 35.3043H114.713V37.7436C114.713 38.1189 114.792 38.4052 114.95 38.6028C115.108 38.7937 115.365 38.8892 115.72 38.8892C115.845 38.8892 115.951 38.876 116.036 38.8497C116.128 38.8233 116.204 38.8101 116.263 38.8101C116.323 38.8036 116.372 38.8233 116.412 38.8694C116.451 38.9155 116.471 38.9945 116.471 39.1064C116.471 39.1854 116.454 39.2578 116.421 39.3237C116.395 39.3895 116.346 39.4356 116.273 39.4619C116.194 39.4883 116.089 39.5113 115.957 39.5311C115.832 39.5574 115.717 39.5706 115.612 39.5706Z" fill="black"/>
</svg>
