<svg width="44" height="44" viewBox="0 0 44 44" fill="none" xmlns="http://www.w3.org/2000/svg">
<path fill-rule="evenodd" clip-rule="evenodd" d="M4.71971 27.0628C5.71755 28.0549 5.71754 29.6634 4.71967 30.6555L4.66857 30.7063C3.6707 31.6984 2.05286 31.6983 1.05501 30.7062C0.0571691 29.7141 0.0571845 28.1056 1.05505 27.1136L1.10615 27.0627C2.10402 26.0707 3.72186 26.0707 4.71971 27.0628Z" fill="#CCEDDE"/>
<path fill-rule="evenodd" clip-rule="evenodd" d="M16.7323 27.828C17.7283 28.8219 17.7254 30.4304 16.7257 31.4207L9.64792 38.4323C8.64826 39.4226 7.03042 39.4197 6.03437 38.4258C5.03832 37.4319 5.04125 35.8234 6.04091 34.8331L13.1187 27.8215C14.1184 26.8312 15.7362 26.8342 16.7323 27.828Z" fill="#26CA7D"/>
<path fill-rule="evenodd" clip-rule="evenodd" d="M26.3385 39.898C27.1213 38.7306 28.7077 38.4151 29.8819 39.1934L30.0352 39.295C31.2094 40.0733 31.5267 41.6506 30.7439 42.8179C29.9611 43.9853 28.3747 44.3008 27.2005 43.5225L27.0472 43.4209C25.873 42.6427 25.5557 41.0654 26.3385 39.898Z" fill="#CCEDDE"/>
<path fill-rule="evenodd" clip-rule="evenodd" d="M43.2005 26.9104C44.1984 27.9025 44.1984 29.511 43.2005 30.5031L39.7255 33.958C38.7276 34.9501 37.1098 34.9501 36.1119 33.958C35.1141 32.9659 35.1141 31.3574 36.1119 30.3653L39.5869 26.9104C40.5848 25.9183 42.2026 25.9183 43.2005 26.9104Z" fill="#26CA7D"/>
<path fill-rule="evenodd" clip-rule="evenodd" d="M43.2516 14.1321C44.2494 15.1242 44.2494 16.7327 43.2516 17.7248L17.5722 43.2559C16.5743 44.248 14.9565 44.248 13.9586 43.2559C12.9607 42.2638 12.9607 40.6553 13.9586 39.6632L39.638 14.1321C40.6359 13.14 42.2537 13.14 43.2516 14.1321Z" fill="#26CA7D"/>
<path fill-rule="evenodd" clip-rule="evenodd" d="M38.3968 6.28219C39.3947 7.27428 39.3947 8.88278 38.3968 9.87488L23.6279 24.5585C22.6301 25.5506 21.0122 25.5506 20.0144 24.5585C19.0165 23.5664 19.0165 21.9579 20.0144 20.9658L34.7833 6.28219C35.7811 5.29009 37.399 5.29009 38.3968 6.28219Z" fill="#26CA7D"/>
<path fill-rule="evenodd" clip-rule="evenodd" d="M30.6023 1.30176C31.6008 2.29319 31.6019 3.90169 30.6047 4.89445L11.6198 23.7951C10.6226 24.7879 9.00479 24.789 8.00626 23.7976C7.00773 22.8061 7.00665 21.1976 8.00383 20.2049L26.9887 1.30418C27.9859 0.311417 29.6038 0.310335 30.6023 1.30176Z" fill="#26CA7D"/>
<path fill-rule="evenodd" clip-rule="evenodd" d="M11.8006 7.35224C12.7967 8.34604 12.7939 9.95454 11.7944 10.9449L4.35883 18.3121C3.35926 19.3025 1.74142 19.2997 0.745284 18.3059C-0.250852 17.3121 -0.248067 15.7036 0.751504 14.7133L8.18704 7.34605C9.18661 6.35567 10.8045 6.35844 11.8006 7.35224Z" fill="#26CA7D"/>
<path fill-rule="evenodd" clip-rule="evenodd" d="M16.3531 0C17.7643 0 18.9083 1.13738 18.9083 2.54042V2.79446C18.9083 4.19749 17.7643 5.33487 16.3531 5.33487C14.9419 5.33487 13.7979 4.19749 13.7979 2.79446V2.54042C13.7979 1.13738 14.9419 0 16.3531 0Z" fill="#CCEDDE"/>
</svg>
